<?xml version="1.0" encoding="utf-8"?>
<svg xmlns="http://www.w3.org/2000/svg" xmlns:xlink="http://www.w3.org/1999/xlink" style="margin: auto; background: rgba(255, 255, 255, 0); display: block; shape-rendering: auto;" width="134px" height="134px" viewBox="0 0 100 100" preserveAspectRatio="xMidYMid">
<g transform="translate(50 50)">
<g>
<animateTransform attributeName="transform" type="rotate" values="0;40" keyTimes="0;1" dur="0.3367003367003367s" repeatCount="indefinite"></animateTransform><path d="M23.361292772447335 -5.5 L31.361292772447335 -5.5 L31.361292772447335 5.5 L23.361292772447335 5.5 A24 24 0 0 1 21.43112036568479 10.803105103234468 L21.43112036568479 10.803105103234468 L27.559475910636614 15.945405980726783 L20.48881220408468 24.371894855035542 L14.360456659132858 19.229593977543228 A24 24 0 0 1 9.473088559446257 22.051317265526073 L9.473088559446257 22.051317265526073 L10.862273980781701 29.92977928962374 L0.029388697647410256 31.839909243959976 L-1.359796723688033 23.96144721986231 A24 24 0 0 1 -6.917506665409248 22.98147300618519 L-6.917506665409248 22.98147300618519 L-10.917506665409245 29.9096762364607 L-20.443786107038072 24.409676236460708 L-16.443786107038072 17.481473006185198 A24 24 0 0 1 -20.071323641996756 13.158342116627841 L-20.071323641996756 13.158342116627841 L-27.588864608284023 15.894503263233192 L-31.35108618486638 5.557884434588209 L-23.83354521857911 2.8217232879828575 A24 24 0 0 1 -23.83354521857911 -2.821723287982852 L-23.83354521857911 -2.821723287982852 L-31.35108618486638 -5.5578844345882015 L-27.588864608284027 -15.894503263233185 L-20.07132364199676 -13.158342116627836 A24 24 0 0 1 -16.443786107038083 -17.481473006185183 L-16.443786107038083 -17.481473006185183 L-20.443786107038086 -24.40967623646069 L-10.91750666540926 -29.909676236460697 L-6.917506665409259 -22.98147300618519 A24 24 0 0 1 -1.3597967236880495 -23.96144721986231 L-1.3597967236880495 -23.96144721986231 L0.02938869764739027 -31.839909243959976 L10.86227398078169 -29.929779289623742 L9.473088559446252 -22.051317265526077 A24 24 0 0 1 14.360456659132845 -19.229593977543235 L14.360456659132845 -19.229593977543235 L20.488812204084667 -24.37189485503555 L27.559475910636614 -15.945405980726786 L21.43112036568479 -10.80310510323447 A24 24 0 0 1 23.36129277244733 -5.5000000000000115 M0 -16A16 16 0 1 0 0 16 A16 16 0 1 0 0 -16" fill="#a2bacb"></path></g></g>
<!-- [ldio] generated by https://loading.io/ --></svg>